<svg xmlns="http://www.w3.org/2000/svg" xmlns:xlink="http://www.w3.org/1999/xlink" width="55" height="55" viewBox="0 0 55 55"><defs><path id="okqla" d="M720 728a26 26 0 1 1 0 52 26 26 0 0 1 0-52z"/><path id="okqlb" d="M717.02 763.22v-9.34c0-1.52 1.34-2.76 2.98-2.76s2.98 1.24 2.98 2.76v9.34c0 1.53-1.34 2.77-2.98 2.77s-2.98-1.24-2.98-2.77zm0-18.45c0-1.52 1.34-2.76 2.98-2.76s2.98 1.24 2.98 2.76c0 1.53-1.34 2.77-2.98 2.77s-2.98-1.24-2.98-2.77z"/></defs><g><g transform="translate(-692 -726)"><use fill="#e4e4e4" xlink:href="#okqla"/></g><g transform="translate(-692 -726)"><use fill="#9d9b9d" xlink:href="#okqlb"/></g></g></svg>