<svg xmlns="http://www.w3.org/2000/svg" xmlns:xlink="http://www.w3.org/1999/xlink" width="24" height="24" viewBox="0 0 24 24"><defs><path id="8lh1a" d="M596 607h18a3 3 0 0 1 3 3v18a3 3 0 0 1-3 3h-18a3 3 0 0 1-3-3v-18a3 3 0 0 1 3-3z"/><path id="8lh1b" d="M610.13 614.15a2.9 2.9 0 0 0-4.1 0l-2.6 2.6-2.46 2.45-1.42 1.42a2.2 2.2 0 0 0 3.1 3.1l.7-.7 3.18-3.17 1.08-1.09a1.43 1.43 0 0 0-2.02-2.01l-4.62 4.6a.36.36 0 0 0 .51.51l4.61-4.61a.71.71 0 0 1 1.01 1l-1.08 1.1-3.17 3.16-.7.7a1.48 1.48 0 0 1-2.1-2.08l1.43-1.43 2.45-2.45 2.6-2.6a2.2 2.2 0 0 1 3.1 3.1l-6.35 6.35a.36.36 0 1 0 .5.5l6.35-6.34a2.9 2.9 0 0 0 0-4.11z"/></defs><g><g transform="translate(-593 -607)"><use fill="#bbbbbd" xlink:href="#8lh1a"/></g><g transform="translate(-593 -607)"><use fill="#fcfcff" xlink:href="#8lh1b"/></g></g></svg>