<svg xmlns="http://www.w3.org/2000/svg" xmlns:xlink="http://www.w3.org/1999/xlink" width="34" height="36" viewBox="0 0 34 36"><defs><path id="iolha" d="M1854 14a16 16 0 1 1 0 32 16 16 0 0 1 0-32z"/><path id="iolhb" d="M1853.98 22.32c1.42 0 3.37 1.28 3.37 3.36 0 1.45-.96 3.48-2.02 4.57.12 1.04.6 1.78 1.73 1.91 2.88.34 3.71 2.38 3.71 2.38-1.74 2.73-5.53 3.1-6.54 3.15h-.25c-1.01-.05-4.8-.42-6.55-3.15 0 0 .84-2.04 3.71-2.38 1.06-.12 1.54-.77 1.7-1.7a7.6 7.6 0 0 1-2.23-4.78c0-1.94 1.8-3.36 3.37-3.36z"/></defs><g><g transform="translate(-1837 -12)"><use fill="#e4e4e4" xlink:href="#iolha"/></g><g transform="translate(-1837 -12)"><use fill="#bdbdbd" xlink:href="#iolhb"/></g></g></svg>