<svg xmlns="http://www.w3.org/2000/svg" xmlns:xlink="http://www.w3.org/1999/xlink" width="14" height="18" viewBox="0 0 16 18">

        <path id="1ziua" transform="translate(-688 -265)"  fill-opacity="0" stroke="#cacaca" stroke-linecap="round" stroke-linejoin="round" stroke-miterlimit="50" stroke-width="2" fill="#fff" d="M696.35 265c1.6 0 3.79 1.51 3.79 3.94 0 1.7-1.07 4.08-2.26 5.35.13 1.22.66 2.09 1.94 2.24 3.23.4 4.17 2.78 4.17 2.78-1.96 3.2-6.22 3.63-7.36 3.7h-.28c-1.14-.07-5.4-.5-7.35-3.7 0 0 .93-2.39 4.16-2.78 1.2-.14 1.74-.9 1.91-1.99a9.06 9.06 0 0 1-2.5-5.6 4.01 4.01 0 0 1 3.78-3.93z"/>

 
</svg>
