<svg xmlns="http://www.w3.org/2000/svg" xmlns:xlink="http://www.w3.org/1999/xlink" width="35" height="35" viewBox="0 0 35 35"><defs><path id="dee6a" d="M70 74a16 16 0 1 1 0 32 16 16 0 0 1 0-32z"/><path id="dee6b" d="M66.22 83h8.56c.67 0 1.22.56 1.22 1.25v12.5c0 .69-.55 1.25-1.22 1.25h-8.56c-.67 0-1.22-.56-1.22-1.25v-12.5c0-.69.55-1.25 1.22-1.25zm0 1.87v11.25c0 .35.28.63.61.63h7.34c.33 0 .6-.28.6-.63V84.87a.62.62 0 0 0-.6-.62h-7.34a.62.62 0 0 0-.6.62zm1.84 2.5c.33 0 .6.28.6.63s-.27.62-.6.62a.62.62 0 0 1-.62-.62c0-.35.28-.63.62-.63zm1.83 0h3.05c.34 0 .62.28.62.63s-.28.62-.62.62H69.9a.62.62 0 0 1-.61-.62c0-.35.27-.63.6-.63zm-1.83 3.13c.33 0 .6.28.6.62 0 .35-.27.63-.6.63a.62.62 0 0 1-.62-.63c0-.34.28-.62.62-.62zm1.83 0h3.05c.34 0 .62.28.62.62 0 .35-.28.63-.62.63H69.9a.62.62 0 0 1-.61-.63c0-.34.27-.62.6-.62zm-1.83 3.12c.33 0 .6.28.6.63s-.27.62-.6.62a.62.62 0 0 1-.62-.62c0-.35.28-.63.62-.63zm1.83 0h3.05c.34 0 .62.28.62.63s-.28.62-.62.62H69.9a.62.62 0 0 1-.61-.62c0-.35.27-.63.6-.63z"/></defs><g><g transform="translate(-52 -72)"><use fill="#cacaca" xlink:href="#dee6a"/></g><g transform="translate(-52 -72)"><use fill="#fff" xlink:href="#dee6b"/></g></g></svg>