<svg xmlns="http://www.w3.org/2000/svg" xmlns:xlink="http://www.w3.org/1999/xlink" width="55" height="55" viewBox="0 0 55 55"><defs><path id="2xi8a" d="M731 667h-1.33a9.46 9.46 0 0 1-.92 2.2l1.23 1.23a2 2 0 0 1 0 2.84l-.71.7a2 2 0 0 1-2.84 0l-1.23-1.22c-.68.38-1.42.69-2.2.9v1.28a2 2 0 0 1-2 2h-1a2 2 0 0 1-2-2v-1.28a9.46 9.46 0 0 1-2.2-.9l-1.23 1.23a2 2 0 0 1-2.84 0l-.7-.71a2 2 0 0 1 0-2.84l1.22-1.22c-.4-.69-.7-1.42-.92-2.2H710a2 2 0 0 1-2-2V664c0-1.1.9-2 2-2h1.31c.21-.78.5-1.51.89-2.2l-1.18-1.17a2 2 0 0 1 0-2.83l.71-.71a2 2 0 0 1 2.84 0l1.15 1.15c.7-.41 1.47-.73 2.27-.95v-1.35c0-1.1.9-2 2-2H721a2 2 0 0 1 2 2v1.35c.81.22 1.57.54 2.28.95l1.15-1.15a2 2 0 0 1 2.84 0l.7.7a2 2 0 0 1 0 2.84l-1.17 1.18c.38.68.68 1.41.89 2.18h1.3a2 2 0 0 1 2.01 2V665a2 2 0 0 1-2 2zm-8-2.53a2.5 2.5 0 1 0-5 0 2.5 2.5 0 0 0 5 0z"/><path id="2xi8b" d="M720 638a26 26 0 1 1 0 52 26 26 0 0 1 0-52z"/><clipPath id="2xi8c"><use fill="#fff" xlink:href="#2xi8a"/></clipPath></defs><g><g transform="translate(-692 -636)"><use fill="#e4e4e4" xlink:href="#2xi8b"/></g><g transform="translate(-692 -636)"><use fill="#e4e4e4" xlink:href="#2xi8a"/><use fill="#fff" fill-opacity="0" stroke="#999799" stroke-linecap="round" stroke-linejoin="round" stroke-miterlimit="50" stroke-width="4" clip-path="url(&quot;#2xi8c&quot;)" xlink:href="#2xi8a"/></g></g></svg>
