<?xml version="1.0" encoding="UTF-8"?>
<!DOCTYPE svg PUBLIC "-//W3C//DTD SVG 1.1//EN" "http://www.w3.org/Graphics/SVG/1.1/DTD/svg11.dtd">
<!-- Creator: CorelDRAW X7 -->
<svg xmlns="http://www.w3.org/2000/svg" xml:space="preserve" width="18.6728mm" height="18.719mm" version="1.1" style="shape-rendering:geometricPrecision; text-rendering:geometricPrecision; image-rendering:optimizeQuality; fill-rule:evenodd; clip-rule:evenodd"
viewBox="0 0 1867 1872"
 xmlns:xlink="http://www.w3.org/1999/xlink">
 <defs>
  <style type="text/css">
   <![CDATA[
    .fil0 {fill:#E4E4E4}
    .fil1 {fill:#9D9B9D;fill-rule:nonzero}
   ]]>
  </style>
 </defs>
 <g id="Слой_x0020_1">
  <metadata id="CorelCorpID_0Corel-Layer"/>
  <ellipse class="fil0" cx="934" cy="936" rx="934" ry="936"/>
  <path class="fil1" d="M897 596l67 0 109 109 0 -104 125 0 0 218 159 169 0 16 -113 0 0 272 -263 0 0 -163c-28,-25 -61,-26 -94,2l0 161 -244 0 -21 -1 0 -20 0 -251 -112 0 0 -22 387 -386zm34 44l-320 323 64 0 0 262 160 0 1 -119c18,-27 59,-52 101,-52 39,0 79,24 98,50l-1 121 158 0 0 -262 77 0 -117 -122 0 -199 -36 0 0 134 -55 0 -130 -136z"/>
 </g>
</svg>
