<svg xmlns="http://www.w3.org/2000/svg" xmlns:xlink="http://www.w3.org/1999/xlink" width="18" height="22" viewBox="0 0 18 22"><defs><path id="g878a" d="M704.71 360.8l-1.32.78-2.76-4.7 1.32-.79a.6.6 0 0 1 .82.22l2.15 3.65a.6.6 0 0 1-.21.83zm-10.43-5.39c-3.87-6.78-1.8-9.77-1.07-10.32l2.83 4.8c-.68.4-.36 1.31.05 2.2 0 .05 1.96 3.36 1.98 3.38 1 1.38 1.56 2.01 2.2 1.63l2.76 4.68c-.78.49-4.66.78-8.75-6.37zm3.43-6.52l-1.31.78-2.83-4.8 1.32-.78a.6.6 0 0 1 .82.2l2.22 3.77a.6.6 0 0 1-.22.83z"/></defs><g><g transform="translate(-689 -342)"><use fill="#cacaca" xlink:href="#g878a"/></g></g></svg>