<svg xmlns="http://www.w3.org/2000/svg" xmlns:xlink="http://www.w3.org/1999/xlink" width="55" height="55" viewBox="0 0 55 55"><defs><path id="r1pna" d="M731.22 585.34h-20.44c-.98 0-1.78-.77-1.78-1.72v-14.6c0-.96.8-1.72 1.78-1.72H717v.14h1.78v-.15h5.33v.15h1.78v-.15h5.33c.98 0 1.78.77 1.78 1.72v14.6c0 .96-.8 1.73-1.78 1.73zm-5.33-19.76h-.93V563h-7.07v2.6H717v1.7h1.78v-2.6h5.33v2.6h1.78z"/><path id="r1pnb" d="M720 548a26 26 0 1 1 0 52 26 26 0 0 1 0-52z"/><path id="r1pnc" d="M731.22 585.34h-20.44c-.98 0-1.78-.77-1.78-1.72v-14.6c0-.96.8-1.72 1.78-1.72H717v.14h1.78v-.15h5.33v.15h1.78v-.15h5.33c.98 0 1.78.77 1.78 1.72v14.6c0 .96-.8 1.73-1.78 1.73zm-5.33-19.76h-.93V563h-7.07v2.6H717v1.7h1.78v-2.6h5.33v2.6h1.78z"/><clipPath id="r1pnd"><use fill="#fff" xlink:href="#r1pna"/></clipPath></defs><g><g transform="translate(-692 -546)"><use fill="#e4e4e4" xlink:href="#r1pnb"/></g><g transform="translate(-692 -546)"><use fill="#e4e4e4" xlink:href="#r1pnc"/><use fill="#fff" fill-opacity="0" stroke="#999799" stroke-linecap="round" stroke-linejoin="round" stroke-miterlimit="50" stroke-width="4" clip-path="url(&quot;#r1pnd&quot;)" xlink:href="#r1pnc"/></g></g></svg>
