<svg id="svg-sprite" class="svg-sprite" xmlns="http://www.w3.org/2000/svg">
    <symbol id="settings" viewBox="0 0 28 28">
        <path transform="translate(-802 -100)" d="M826.44 116.98h-1.32a9.45 9.45 0 0 1-.92 2.2l1.22 1.22a2 2 0 0 1 0 2.83l-.7.71c-.79.79-2.06.79-2.84 0l-1.24-1.23c-.68.39-1.42.7-2.2.9v1.29a2 2 0 0 1-2 2h-1a2 2 0 0 1-2.01-2v-1.29a9.48 9.48 0 0 1-2.2-.9l-1.23 1.23c-.79.79-2.06.79-2.84 0l-.71-.7a2 2 0 0 1 0-2.84l1.22-1.22c-.4-.69-.7-1.43-.92-2.2h-1.32a2 2 0 0 1-2.01-2v-1.01c0-1.1.9-2 2-2h1.32c.2-.78.5-1.51.89-2.19l-1.18-1.18a2 2 0 0 1 0-2.83l.7-.7a2.01 2.01 0 0 1 2.85 0l1.15 1.14c.7-.4 1.47-.73 2.28-.95v-1.34c0-1.1.9-2 2-2h1a2 2 0 0 1 2.02 2v1.34c.8.22 1.56.54 2.27.95l1.16-1.15a2.01 2.01 0 0 1 2.83 0l.71.71a2 2 0 0 1 0 2.83l-1.17 1.18c.38.68.68 1.41.89 2.19h1.3a2 2 0 0 1 2.01 2v1a2 2 0 0 1-2 2zm-8-2.54a2.5 2.5 0 1 0-5 0 2.5 2.5 0 0 0 5 0z"/>
    </symbol>
    <symbol id="bell" viewBox="0 0 26 29">
        <path transform="translate(-1091 -100)" d="M1114.83 122.2v1.82h-22.05v-1.82s-.48-1.01 2.08-3.43 2.22-8.67 2.22-12.9 5.96-4.32 5.96-4.32h1.53s5.95.09 5.95 4.32-.34 10.48 2.22 12.9 2.09 3.43 2.09 3.43zm-8.51 2.79c0 1.38-1.13 2.88-2.51 2.88-1.39 0-2.51-1.5-2.51-2.88 0 .03 5.02-.03 5.02 0z"/>   
    </symbol>
    <symbol id="info" viewBox="0 0 27 28">
        <path transform="translate(-420 -817)" d="M422 831a12 12 0 1 1 24 0 12 12 0 0 1-24 0zm12 9.33a9.33 9.33 0 1 0 0-18.66 9.33 9.33 0 0 0 0 18.66zm-1.33-4.89v-4.5a1.33 1.33 0 0 1 2.66 0v4.5a1.33 1.33 0 0 1-2.66 0zm0-8.88a1.33 1.33 0 1 1 2.66 0 1.33 1.33 0 0 1-2.66 0z"/>
    </symbol>
    <symbol id="calendar" viewBox="0 0 23 27">
        <path transform="translate(-1169 -170)" d="M1191 177v17a2 2 0 0 1-2 2h-17a2 2 0 0 1-2-2v-17c0-1.1.9-2 2-2v2a1 1 0 0 0 1 1h3a1 1 0 0 0 1-1v-2h7v2a1 1 0 0 0 1 1h3a1 1 0 0 0 1-1v-2a2 2 0 0 1 2 2zm-19 5v11a1 1 0 0 0 1 1h15a1 1 0 0 0 1-1v-11zm2-10h1a1 1 0 0 1 1 1v3a1 1 0 0 1-1 1h-1a1 1 0 0 1-1-1v-3a1 1 0 0 1 1-1zm12 0h1a1 1 0 0 1 1 1v3a1 1 0 0 1-1 1h-1a1 1 0 0 1-1-1v-3a1 1 0 0 1 1-1zm-11 17h1a1 1 0 0 1 1 1v1a1 1 0 0 1-1 1h-1a1 1 0 0 1-1-1v-1a1 1 0 0 1 1-1zm5 0h1a1 1 0 0 1 1 1v1a1 1 0 0 1-1 1h-1a1 1 0 0 1-1-1v-1a1 1 0 0 1 1-1zm5 0h1a1 1 0 0 1 1 1v1a1 1 0 0 1-1 1h-1a1 1 0 0 1-1-1v-1a1 1 0 0 1 1-1zm-10-5h1a1 1 0 0 1 1 1v1a1 1 0 0 1-1 1h-1a1 1 0 0 1-1-1v-1a1 1 0 0 1 1-1zm5 0h1a1 1 0 0 1 1 1v1a1 1 0 0 1-1 1h-1a1 1 0 0 1-1-1v-1a1 1 0 0 1 1-1zm5 0h1a1 1 0 0 1 1 1v1a1 1 0 0 1-1 1h-1a1 1 0 0 1-1-1v-1a1 1 0 0 1 1-1z"/>
    </symbol>
    <symbol id="folder" viewBox="0 0 23 22">
        <path stroke="currentColor" transform="translate(-1169 -299)" d="M1189 304a2 2 0 0 1 2 2v12a2 2 0 0 1-2 2h-17a2 2 0 0 1-2-2v-12c0-1.1.9-2 2-2v-2a1 1 0 0 1 1-1h6a1 1 0 0 1 1 1l.67 2zm-17 13a1 1 0 0 0 1 1h15a1 1 0 0 0 1-1z"/>
    </symbol>
    <symbol id="folder-locked" viewBox="0 0 600 496">
        <path class="fil0" d="M357 420l-324 -5c-5,0 -10,-4 -9,-10 0,-2 0,-4 1,-5l0 0 47 -73c2,-3 5,-4 8,-4l306 0 0 19 -301 1 -33 53 306 5 -1 19z"/>
        <polygon class="fil1" points="223,49 454,49 487,89 230,88 "/>
        <path class="fil0" d="M360 426l-315 -1c-24,0 -44,-31 -45,-54l0 -274c0,-8 7,-15 15,-15l21 0 22 -71c2,-7 8,-11 14,-11l133 0c7,0 12,4 14,10 11,22 19,45 28,69l228 0c9,0 15,7 15,15l0 86 -29 0 0 -71 -224 0c-7,0 -13,-4 -15,-10 -8,-23 -17,-47 -26,-69l-113 0 -22 71 0 0c-2,6 -7,11 -14,11l-17 0 -1 258c1,13 8,20 19,26l312 0 0 30z"/>
        <path class="fil2" d="M380 322l12 0 0 -103c0,-3 1,-5 2,-7 18,-28 52,-43 85,-43 36,-1 67,17 85,49 1,2 1,4 1,6l0 98 15 0c13,3 21,10 20,25l0 149 -242 0 0 -154c0,-13 7,-20 22,-20zm36 0l125 0 -1 -94c0,-1 0,-1 -1,-2 -13,-22 -35,-33 -60,-33 -23,0 -47,10 -61,28 -1,2 -1,2 -1,4l-1 97z"/>
    </symbol>
    <symbol id="eye-closed" viewBox="0 0 26 13">
        <path transform="translate(-1083 -549)" d="M1084 553l2-2s4.97 7 10 7c5.19 0 10-7 10-7l2 2s-5.23 7.99-12.11 7.99c-7.36 0-11.89-8-11.89-8z"/>
    </symbol>
    <symbol id="eye-opened" viewBox="0 0 26 18">
        <path transform="translate(-1083 -544)" d="M1095.89 545c6.92 0 12.1 8 12.1 8s-5.22 7.99-12.1 7.99c-7.36 0-11.89-8-11.89-8s4.57-7.98 11.89-7.98zm-4.9 8a5 5 0 1 0 10-.02 5 5 0 0 0-10 .02zm5.04-2.5a2.49 2.49 0 1 1 0 4.98 2.49 2.49 0 0 1 0-4.98z"/>
    </symbol>
    <symbol id="help" viewBox="0 0 26 26">
        <path transform="translate(-1632 -16)" d="M1645.5 18a11.5 11.5 0 1 1 0 23 11.5 11.5 0 0 1 0-23zm-8.94 11.5a8.94 8.94 0 1 0 17.88 0 8.94 8.94 0 0 0-17.88 0zm8.94 2.98a1.28 1.28 0 1 1 0 2.56 1.28 1.28 0 0 1 0-2.56zm-.84-1.85c0-.66.1-1.15.3-1.45.55-.85 1.9-1.59 1.86-2.25-.07-1.46-2.2-1.35-2.2-.12-.06 1.2-2 1.06-2.05 0 0 0-.35-1.16.9-2.13 1.16-.9 2.87-1 4.16.13.94.83 1.48 3.07-.17 4.23-.58.44-.71.8-.71 1.59.03 1.23-1.98 1.4-2.1 0z"/>
    </symbol>
    <symbol id="lock" viewBox="0 0 15 19">
        <path transform="translate(-1290 -123)" d="M1292 141v-8.83h1.56v-2.76a4.3 4.3 0 0 1 4.18-4.41h.52a4.3 4.3 0 0 1 4.17 4.41v2.76h1.57V141zm5.6-4.53l-.38 2.87h1.56l-.39-2.87c.38-.17.65-.56.65-1.02 0-.61-.46-1.1-1.04-1.1-.58 0-1.04.49-1.04 1.1 0 .46.26.85.65 1.02zm3.27-6.78a2.96 2.96 0 0 0-2.87-3.03 2.96 2.96 0 0 0-2.87 3.03v2.48h5.74z"/>
    </symbol>
    <symbol id="logout" viewBox="0 0 18 16">
        <path transform="translate(-1455 -125)" d="M1469 127h3v13h-3zm-12.99 7.96v-2.95h7.03v-3.4l4.79 4.84-4.83 4.87.04-3.36z"/>
    </symbol>
    <symbol id="fb" viewBox="0 0 49.652 49.652">
        <path d="M24.826,0C11.137,0,0,11.137,0,24.826c0,13.688,11.137,24.826,24.826,24.826c13.688,0,24.826-11.138,24.826-24.826
            C49.652,11.137,38.516,0,24.826,0z M31,25.7h-4.039c0,6.453,0,14.396,0,14.396h-5.985c0,0,0-7.866,0-14.396h-2.845v-5.088h2.845
            v-3.291c0-2.357,1.12-6.04,6.04-6.04l4.435,0.017v4.939c0,0-2.695,0-3.219,0c-0.524,0-1.269,0.262-1.269,1.386v2.99h4.56L31,25.7z
            "/>
    </symbol>
    <symbol id="bubbles" viewBox="0 0 28 27">
        <path transform="translate(-56 -663)" d="M67.13 665a9.17 9.17 0 0 1 9.14 9.2 9.17 9.17 0 0 1-10.8 9.05l-5.54 2.86 1.81-4.47A9.22 9.22 0 0 1 58 674.2c0-5.08 4.1-9.2 9.14-9.2zM83 677.07a9.22 9.22 0 0 1-3.75 7.44l1.8 4.47-5.52-2.86c-.54.1-1.1.16-1.67.16-5.05 0-5.69-1.77-5.69-1.77 5.74 0 12.78-8.59 6.8-16.65 4.18.04 8.03 4.12 8.03 9.2z"/>
    </symbol>
    <symbol id="curator" viewBox="0 0 23 27">
        <path transform="translate(-59 -734)" d="M71 736c2.76 0 5 2.15 5 4.8a4.9 4.9 0 0 1-5 4.8 4.9 4.9 0 0 1-5-4.8 4.9 4.9 0 0 1 5-4.8zm-2.78 12.27L71 745.6l2.78 2.67-2.78 11.2zm-3.33-1.07L71 760h-.45c-5.32-.1-9.55-1.9-9.55-3.47v-5.06s.7-3.87 1.67-4.27c.97-.4 2.22 0 2.22 0zm14.44 0c.97.4 1.67 4.27 1.67 4.27v5.06c0 1.58-4.23 3.37-9.55 3.47H71l6.11-12.8s1.25-.4 2.22 0z"/>
    </symbol>
    <symbol id="refresh" viewBox="0 0 19 19">
        <path transform="translate(-1361 -219)" d="M1376.68 229.46l-2.31-2.46h1.35a5.52 5.52 0 0 0-5.16-3.8c-3.03 0-5.5 2.6-5.5 5.84 0 3.22 2.47 5.84 5.5 5.84a5.5 5.5 0 0 0 5.03-3.45l.02-.06 1.47 1.56-.02.06-.01.01a7.46 7.46 0 0 1-6.52 4c-4.16 0-7.53-3.58-7.53-8s3.37-8 7.53-8c3.48 0 6.4 2.5 7.27 5.9 0 .03 0 .07.02.1h1.18z"/>
    </symbol>
    <symbol id="doc" viewBox="0 0 17 17">
        <path fill="currentColor" transform="translate(-434 -495)" d="M436 498h1v12h-1zm1-1h9v1h-9zm10 13h-1v-12h1zm-1 1h-9v-1h9zm-8-10h1v1h-1zm2 0h5v1h-5zm-2 3h1v1h-1zm2 0h5v1h-5zm-2 3h1v1h-1zm2 0h5v1h-5z"/>
    </symbol>
    <symbol id="doc-done" style="shape-rendering:geometricPrecision; text-rendering:geometricPrecision; image-rendering:optimizeQuality; fill-rule:evenodd; clip-rule:evenodd" viewBox="0 0 484 564">
        <path fill="currentColor" d="M0 36l36 0 0 432 -36 0 0 -432zm36 -36l324 0 0 36 -324 0 0 -36zm360 468l-36 0 0 -432 36 0 0 432zm-36 36l-324 0 0 -36 324 0 0 36zm-288 -360l36 0 0 36 -36 0 0 -36zm72 0l180 0 0 36 -180 0 0 -36zm-72 108l36 0 0 36 -36 0 0 -36zm72 0l180 0 0 36 -180 0 0 -36zm-72 108l36 0 0 36 -36 0 0 -36zm72 0l180 0 0 36 -180 0 0 -36z"/>
        <ellipse fill="#4FC881" cx="330" cy="409" rx="154" ry="156"/>
        <g fill="#fefefe">
            <rect x="242" y="423" width="35.2563" height="35.29"/>
            <rect x="278" y="459" width="35.2563" height="35.29"/>
            <rect x="313" y="423" width="35.2563" height="35.29"/>
            <rect x="348" y="388" width="35.2563" height="35.29"/>
            <rect x="384" y="353" width="35.2563" height="35.29"/>
        </g>
    </symbol>
    <symbol id="send" viewBox="0 0 21 16">
        <path transform="translate(-1474 -1048)" d="M1474 1058.6l7.25 2.3 8.92-7.91-6.92 8.52 7.75 2.5 4-16.01z"/>
    </symbol>
    <symbol id="user" viewBox="0 0 18 25" fill="#fff" fill-opacity="0" stroke="#bebebe" stroke-linecap="round" stroke-linejoin="round" stroke-miterlimit="50" stroke-width="3" clip-path="url(&quot;#jnpob&quot;)">
       <path transform="translate(-400 -195)" d="M408.99 197c2.1 0 4.99 1.75 4.99 4.58 0 2.11-1.6 5.12-3.3 6.52.23 1.14.88 1.94 2.3 2.09 3.87.41 4.99 2.96 4.99 2.96.65 4.86-8.99 4.85-8.99 4.85s-8.76.12-8.98-4.85c0 0 1.12-2.55 5-2.96 1.41-.15 2.06-.95 2.28-2.1-1.69-1.4-3.29-4.4-3.29-6.5 0-2.65 2.66-4.59 5-4.59z"/>
    </symbol>
    <symbol id="search" viewBox="0 0 15 15">
        <path transform="translate(-1497 -197)" d="M1512.63 212.22l-.44.44c-.44.43-1.16.43-1.6 0l-2.75-2.76a6.43 6.43 0 1 1 2.03-2.03l2.76 2.75c.44.44.44 1.16 0 1.6zm-3.55-7.78a4.65 4.65 0 1 0-9.3 0 4.65 4.65 0 0 0 9.3 0z"/>
    </symbol>
</svg>