<svg id="svg-sprite" class="svg-sprite" xmlns="http://www.w3.org/2000/svg">
    <symbol id="settings" viewBox="0 0 28 28">
        <path transform="translate(-802 -100)" d="M826.44 116.98h-1.32a9.45 9.45 0 0 1-.92 2.2l1.22 1.22a2 2 0 0 1 0 2.83l-.7.71c-.79.79-2.06.79-2.84 0l-1.24-1.23c-.68.39-1.42.7-2.2.9v1.29a2 2 0 0 1-2 2h-1a2 2 0 0 1-2.01-2v-1.29a9.48 9.48 0 0 1-2.2-.9l-1.23 1.23c-.79.79-2.06.79-2.84 0l-.71-.7a2 2 0 0 1 0-2.84l1.22-1.22c-.4-.69-.7-1.43-.92-2.2h-1.32a2 2 0 0 1-2.01-2v-1.01c0-1.1.9-2 2-2h1.32c.2-.78.5-1.51.89-2.19l-1.18-1.18a2 2 0 0 1 0-2.83l.7-.7a2.01 2.01 0 0 1 2.85 0l1.15 1.14c.7-.4 1.47-.73 2.28-.95v-1.34c0-1.1.9-2 2-2h1a2 2 0 0 1 2.02 2v1.34c.8.22 1.56.54 2.27.95l1.16-1.15a2.01 2.01 0 0 1 2.83 0l.71.71a2 2 0 0 1 0 2.83l-1.17 1.18c.38.68.68 1.41.89 2.19h1.3a2 2 0 0 1 2.01 2v1a2 2 0 0 1-2 2zm-8-2.54a2.5 2.5 0 1 0-5 0 2.5 2.5 0 0 0 5 0z"/>
    </symbol>
    <symbol id="bell" viewBox="0 0 26 29">
        <path transform="translate(-1091 -100)" d="M1114.83 122.2v1.82h-22.05v-1.82s-.48-1.01 2.08-3.43 2.22-8.67 2.22-12.9 5.96-4.32 5.96-4.32h1.53s5.95.09 5.95 4.32-.34 10.48 2.22 12.9 2.09 3.43 2.09 3.43zm-8.51 2.79c0 1.38-1.13 2.88-2.51 2.88-1.39 0-2.51-1.5-2.51-2.88 0 .03 5.02-.03 5.02 0z"/>   
    </symbol>
    <symbol id="info" viewBox="0 0 27 28">
        <path transform="translate(-420 -817)" d="M422 831a12 12 0 1 1 24 0 12 12 0 0 1-24 0zm12 9.33a9.33 9.33 0 1 0 0-18.66 9.33 9.33 0 0 0 0 18.66zm-1.33-4.89v-4.5a1.33 1.33 0 0 1 2.66 0v4.5a1.33 1.33 0 0 1-2.66 0zm0-8.88a1.33 1.33 0 1 1 2.66 0 1.33 1.33 0 0 1-2.66 0z"/>
    </symbol>
    <symbol id="calendar" viewBox="0 0 23 27">
        <path transform="translate(-1169 -170)" d="M1191 177v17a2 2 0 0 1-2 2h-17a2 2 0 0 1-2-2v-17c0-1.1.9-2 2-2v2a1 1 0 0 0 1 1h3a1 1 0 0 0 1-1v-2h7v2a1 1 0 0 0 1 1h3a1 1 0 0 0 1-1v-2a2 2 0 0 1 2 2zm-19 5v11a1 1 0 0 0 1 1h15a1 1 0 0 0 1-1v-11zm2-10h1a1 1 0 0 1 1 1v3a1 1 0 0 1-1 1h-1a1 1 0 0 1-1-1v-3a1 1 0 0 1 1-1zm12 0h1a1 1 0 0 1 1 1v3a1 1 0 0 1-1 1h-1a1 1 0 0 1-1-1v-3a1 1 0 0 1 1-1zm-11 17h1a1 1 0 0 1 1 1v1a1 1 0 0 1-1 1h-1a1 1 0 0 1-1-1v-1a1 1 0 0 1 1-1zm5 0h1a1 1 0 0 1 1 1v1a1 1 0 0 1-1 1h-1a1 1 0 0 1-1-1v-1a1 1 0 0 1 1-1zm5 0h1a1 1 0 0 1 1 1v1a1 1 0 0 1-1 1h-1a1 1 0 0 1-1-1v-1a1 1 0 0 1 1-1zm-10-5h1a1 1 0 0 1 1 1v1a1 1 0 0 1-1 1h-1a1 1 0 0 1-1-1v-1a1 1 0 0 1 1-1zm5 0h1a1 1 0 0 1 1 1v1a1 1 0 0 1-1 1h-1a1 1 0 0 1-1-1v-1a1 1 0 0 1 1-1zm5 0h1a1 1 0 0 1 1 1v1a1 1 0 0 1-1 1h-1a1 1 0 0 1-1-1v-1a1 1 0 0 1 1-1z"/>
    </symbol>
    <symbol id="folder" viewBox="0 0 23 22">
        <path transform="translate(-1169 -299)" d="M1189 304a2 2 0 0 1 2 2v12a2 2 0 0 1-2 2h-17a2 2 0 0 1-2-2v-12c0-1.1.9-2 2-2v-2a1 1 0 0 1 1-1h6a1 1 0 0 1 1 1l.67 2zm-17 13a1 1 0 0 0 1 1h15a1 1 0 0 0 1-1z"/>
    </symbol>
</svg>