<svg xmlns="http://www.w3.org/2000/svg" xmlns:xlink="http://www.w3.org/1999/xlink" width="27" height="27" viewBox="0 0 27 27"><defs><path id="37pua" d="M71.54 164.57h-2.77a1.4 1.4 0 0 1-1.39-1.43v-8.57h.7v2.14h3.48c.12-.8.84-1.42 1.7-1.42.97 0 1.74.75 1.74 1.68a1.7 1.7 0 0 1-1.73 1.68c-.8 0-1.46-.51-1.67-1.22h-3.52v4.28c.19 1.86.3 2.16 2.07 2.15h1.39zm1.73-1.94c.96 0 1.73.76 1.73 1.69a1.7 1.7 0 0 1-1.73 1.68 1.7 1.7 0 0 1-1.73-1.68c0-.93.77-1.69 1.73-1.69zM67.73 151c.96 0 1.73.8 1.73 1.79 0 .98-.77 1.78-1.73 1.78s-1.73-.8-1.73-1.78c0-1 .77-1.79 1.73-1.79z"/><path id="37pub" d="M70 146a12 12 0 1 1 0 24 12 12 0 0 1 0-24z"/><clipPath id="37puc"><use fill="#fff" xlink:href="#37pua"/></clipPath></defs><g><g transform="translate(-56 -144)"><use fill="#d8dfeb" xlink:href="#37pub"/></g><g transform="translate(-56 -144)"><use fill="#3b3b44" xlink:href="#37pua"/><use fill="#fff" fill-opacity="0" stroke="#3b3b44" stroke-linecap="round" stroke-linejoin="round" stroke-miterlimit="50" stroke-width="2" clip-path="url(&quot;#37puc&quot;)" xlink:href="#37pua"/></g></g></svg>