<svg xmlns="http://www.w3.org/2000/svg" xmlns:xlink="http://www.w3.org/1999/xlink" width="18" height="21" viewBox="0 0 18 21"><defs><path id="5s7va" d="M695.35 266c1.6 0 3.79 1.51 3.79 3.94 0 1.7-1.07 4.08-2.26 5.35.13 1.22.66 2.09 1.94 2.24 3.23.4 4.17 2.78 4.17 2.78-1.96 3.2-6.22 3.63-7.36 3.7h-.28c-1.14-.07-5.4-.5-7.35-3.7 0 0 .93-2.39 4.16-2.78 1.2-.14 1.74-.9 1.91-1.99a9.06 9.06 0 0 1-2.5-5.6 4.01 4.01 0 0 1 3.78-3.93z"/><clipPath id="5s7vb"><use fill="#fff" xlink:href="#5s7va"/></clipPath></defs><g><g transform="translate(-686 -265)"><use fill="#bdbdbd" xlink:href="#5s7va"/><use fill="#fff" fill-opacity="0" stroke="#cacaca" stroke-linecap="round" stroke-linejoin="round" stroke-miterlimit="50" stroke-width="4" clip-path="url(&quot;#5s7vb&quot;)" xlink:href="#5s7va"/></g></g></svg>